<?xml version="1.0" encoding="UTF-8"?>
<svg enable-background="new 0 0 512 512" version="1.1" viewBox="0 0 512 512" xml:space="preserve" xmlns="http://www.w3.org/2000/svg">
		<g fill="#b18f43">
			<path d="m486.4 59.733h-460.8c-14.138 0-25.6 11.461-25.6 25.6v341.33c0 14.138 11.461 25.6 25.6 25.6h460.8c14.138 0 25.6-11.461 25.6-25.6v-341.33c0-14.138-11.461-25.6-25.6-25.6zm8.533 366.93c0 4.713-3.82 8.533-8.533 8.533h-460.8c-4.713 0-8.533-3.82-8.533-8.533v-341.33c0-4.713 3.82-8.533 8.533-8.533h460.8c4.713 0 8.533 3.82 8.533 8.533v341.33z"/>
			<path d="m470.08 93.898c-2.255-0.197-4.496 0.51-6.229 1.966l-196.86 165.38c-6.349 5.337-15.616 5.337-21.965 0l-196.86-165.38c-2.335-1.96-5.539-2.526-8.404-1.484s-4.957 3.534-5.487 6.537 0.582 6.06 2.917 8.02l196.86 165.37c12.688 10.683 31.224 10.683 43.913 0l196.86-165.37c1.734-1.455 2.818-3.539 3.015-5.794s-0.51-4.496-1.966-6.229c-1.454-1.735-3.538-2.819-5.793-3.016z"/>
			<path d="m164.12 273.13c-3.021-0.674-6.169 0.34-8.229 2.65l-119.47 128c-2.162 2.214-2.956 5.426-2.074 8.392 0.882 2.967 3.301 5.223 6.321 5.897 3.021 0.674 6.169-0.34 8.229-2.65l119.47-128c2.162-2.214 2.956-5.426 2.074-8.392s-3.3-5.223-6.321-5.897z"/>
			<path d="m356.1 275.78c-2.059-2.31-5.208-3.324-8.229-2.65s-5.439 2.931-6.321 5.897c-0.882 2.967-0.088 6.178 2.074 8.392l119.47 128c3.24 3.318 8.536 3.442 11.927 0.278s3.635-8.456 0.549-11.918l-119.47-128z"/>
		</g>
</svg>
