<?xml version="1.0" encoding="UTF-8"?>
<svg enable-background="new 0 0 512 512" version="1.1" viewBox="0 0 512 512" xml:space="preserve" xmlns="http://www.w3.org/2000/svg">
<g transform="translate(1 1)">
		<path d="m468.33-1h-426.67c-23.894 0-42.667 18.773-42.667 42.667v426.67c0 23.893 18.773 42.666 42.667 42.666h426.67c23.893 0 42.666-18.773 42.666-42.667v-426.67c0-23.894-18.773-42.667-42.667-42.667zm-213.33 494.93v-170.67h-68.267v-68.267h68.267v-59.733c0-48.64 37.547-89.6 85.333-93.867h76.8v68.267h-68.267c-14.507 0-25.6 11.093-25.6 25.6v59.733h85.334v68.267h-85.333v170.67h-68.267zm238.93-25.6c0 14.507-11.093 25.6-25.6 25.6h-128v-153.6h85.333v-102.4h-85.333v-42.667c0-5.12 3.413-8.533 8.533-8.533h85.334v-102.4h-94.72c-57.173 5.12-101.55 53.76-101.55 110.93v42.667h-68.267v102.4h68.267v153.6h-196.27c-14.507 0-25.6-11.093-25.6-25.6v-426.67c0-14.507 11.093-25.6 25.6-25.6h426.67c14.507 0 25.6 11.093 25.6 25.6v426.67z" fill="#b18f43"/>
</g>
</svg>
