<?xml version="1.0" encoding="UTF-8"?>
<svg enable-background="new 0 0 512 512" version="1.1" viewBox="0 0 512 512" xml:space="preserve" xmlns="http://www.w3.org/2000/svg">
<g transform="translate(1 1)">
		<g fill="#b18f43">
			<path d="m365.08-1h-220.16c-80.213 0-145.92 65.707-145.92 145.92v220.16c0 80.213 65.707 145.92 145.92 145.92h220.16c80.213 0 145.92-65.707 145.92-145.92v-220.16c0-80.213-65.707-145.92-145.92-145.92zm128.85 366.08c0 70.827-58.027 128.85-128.85 128.85h-220.16c-70.827 0-128.85-58.027-128.85-128.85v-220.16c0-70.827 58.027-128.85 128.85-128.85h220.16c70.827 0 128.85 58.027 128.85 128.85v220.16z"/>
			<path d="m365.08 50.2h-220.16c-52.053 0-94.72 42.667-94.72 94.72v220.16c0 52.053 42.667 94.72 94.72 94.72h220.16c52.053 0 94.72-42.667 94.72-94.72v-220.16c0-52.053-42.667-94.72-94.72-94.72zm77.653 314.88c0 42.667-34.987 77.653-77.653 77.653h-220.16c-42.667 0-77.653-34.987-77.653-77.653v-220.16c0-42.667 34.987-77.653 77.653-77.653h220.16c42.667 0 77.653 34.987 77.653 77.653v220.16z"/>
			<path d="m255 118.47c-75.093 0-136.53 61.44-136.53 136.53s61.44 136.53 136.53 136.53 136.53-61.44 136.53-136.53-61.44-136.53-136.53-136.53zm0 256c-65.707 0-119.47-53.76-119.47-119.47s53.76-119.47 119.47-119.47 119.47 53.76 119.47 119.47-53.76 119.47-119.47 119.47z"/>
			<path d="m255 161.13c-52.053 0-93.867 41.813-93.867 93.867 0 52.053 41.813 93.867 93.867 93.867s93.867-41.813 93.867-93.867-41.814-93.867-93.867-93.867zm0 170.67c-42.667 0-76.8-34.133-76.8-76.8s34.133-76.8 76.8-76.8 76.8 34.133 76.8 76.8-34.133 76.8-76.8 76.8z"/>
			<path d="m391.53 92.867c-14.507 0-25.6 11.093-25.6 25.6s11.093 25.6 25.6 25.6 25.6-11.093 25.6-25.6-11.093-25.6-25.6-25.6z"/>
		</g>
</g>
</svg>
