<?xml version="1.0" encoding="UTF-8"?>
<svg version="1.1" viewBox="0 0 100 82" xmlns="http://www.w3.org/2000/svg">
<g fill="none" fill-rule="evenodd">
<g fill="#b18f43" fill-rule="nonzero">
<path d="m37.043 1.3874c-0.054475-0.3381-4.2451-0.3381-8.3658 0.58294-9.3852 2.0947-15.424 8.301-17.315 10.299-2.7444 2.9516-5.0388 6.2908-6.8093 9.91-3.1161 6.4798-4.6497 13.605-4.4747 20.791 0.066148 3.179 0.20623 7.9746 2.3346 13.602 4.9261 13.038 16.195 19.105 19.066 20.597 6.3752 3.2535 13.466 4.857 20.623 4.6635 5.0717-0.17358 10.075-1.2255 14.786-3.109 5.4161-2.0359 10.327-5.2176 14.397-9.327 3.1504-3.2268 5.7175-6.9741 7.5875-11.076h12.451c-1.9252 3.3957-4.2791 6.5303-7.0039 9.327-7.7121 7.8969-16.518 11.091-21.401 12.436 4.287 0.65175 8.6637 0.38682 12.84-0.77725 17.342-4.9433 23.467-24.25 24.125-26.427h-24.903c-1.4976 4.4463-3.88 8.5442-7.0039 12.047-11.105 12.351-27.237 11.76-29.183 11.659-6.3708-0.36346-12.538-2.3721-17.899-5.8294-4.2962-2.7506-7.9463-6.3963-10.7-10.687-5.5953-8.9384-5.249-17.846-5.0584-21.374 0.26009-4.7604 1.3806-9.4344 3.3074-13.796 2.6461-5.789 6.5704-10.904 11.479-14.962 2.284-1.9004 5.9494-4.8889 11.479-6.8009 2.9689-1.0299 5.6848-1.4729 5.642-1.7488z"/>
<path d="m49.689 71.923c0 0.3381-5.5992 2.1646-11.673 0.38863-4.5525-1.333-7.2218-4.0573-9.3385-6.218-5.5564-5.6662-7.3502-12.075-8.1712-15.156-1.1104-4.311-1.5048-8.7747-1.1673-13.213 0.4419-6.2931 2.3043-12.405 5.4475-17.877 2.8617-4.8787 6.7037-9.1129 11.284-12.436 3.8666-2.8342 8.2178-4.9412 12.84-6.218 4.8638-1.2825 8.7315-1.2281 11.673-1.1659 3.9416 0.081611 9.6537 0.26038 16.342 3.109 4.9934 2.1881 9.4931 5.3605 13.23 9.327 3.0242 3.2145 5.5194 6.8872 7.393 10.882 0.93993 2.0085 1.7205 4.0875 2.3346 6.218h-25.292c-0.84787-3.3428-2.2983-6.5034-4.2802-9.327-1.7665-2.5027-4.6693-6.6066-10.117-8.5498-2.8722-0.9974-5.9479-1.2645-8.9494-0.77725 2.4354-1.1677 5.083-1.8288 7.7821-1.9431 1.6848-0.069953 5.4241-0.17877 9.3385 1.9431 3.0195 1.6361 4.6693 3.8163 6.2257 5.8294 1.6275 2.1325 2.938 4.4886 3.8911 6.9953h12.84c-1.7439-3.1778-3.9759-6.0627-6.6148-8.5498-6.6016-6.0441-15.172-9.4955-24.125-9.7156-4.8074-0.070904-9.5772 0.85542-14.008 2.7204-5.9161 2.6271-11.021 6.7866-14.786 12.047-5.3884 7.5473-7.7486 16.838-6.6148 26.038 0.44508 3.3505 1.3621 6.6214 2.7237 9.7156 1.0156 2.3318 2.3035 5.1804 5.0584 8.1611 1.7017 1.8366 3.669 3.4085 5.8366 4.6635 1.7008 1.0218 3.5336 1.8064 5.4475 2.3318 3.2957 0.88607 5.4358 0.56739 5.4475 0.77725z"/>
</g>
</g>
</svg>
