<?xml version="1.0" encoding="UTF-8"?>
<svg version="1.1" viewBox="0 0 600 299" xmlns="http://www.w3.org/2000/svg">
<g fill="none" fill-rule="evenodd">
<g fill="#b18f43" fill-rule="nonzero">
<g transform="translate(0 252.94)">
<path d="m32.549 11.819v-7.8333c-3.8623-2.2209-8.299-3.2434-12.745-2.9375-0.98039 0.078333-11.167 0.97917-16.667 9.7917-5.0717 8.473-3.8691 19.283 2.9412 26.438 3.4663 3.3337 7.9562 5.4034 12.745 5.875 4.7716 0.50427 9.5798-0.52478 13.725-2.9375v-8.8125c-0.56863 0.59729-5.6373 5.8065-12.745 4.8958-7.2938-1.0866-12.705-7.3224-12.745-14.688 0.16101-4.8208 2.7404-9.2371 6.8627-11.75 2.376-1.3812 5.0958-2.0603 7.8431-1.9583 3.9313 0.069194 7.7268 1.4477 10.784 3.9167z"/>
<path d="m69.804 0.068542c-6.5359 14.361-13.072 28.722-19.608 43.083h7.8431c1.6275-3.2704 2.2843-6.531 3.9216-9.7917h15.686l4.902 9.7917h7.8431l-20.588-43.083zm-4.902 26.438c1.3039-3.5935 3.5882-7.1871 4.902-10.771l4.902 10.771h-9.8039z"/>
<path d="m124.71 26.506c5.2549-2.0011 8.4605-7.3293 7.763-12.903-0.69756-5.5735-5.1178-9.9496-10.704-10.597h-11.765v40.146h6.8627v-15.667l10.784 15.667h8.8235l-11.765-16.646zm-3.9216-5.875c-1.2818 0.36363-2.6397 0.36363-3.9216 0v-11.75c1.2804-0.37372 2.6412-0.37372 3.9216 0 2.2157 0.66583 4.902 2.771 4.902 5.875 0 3.104-2.6863 5.1994-4.902 5.875z"/>
<path d="m168.82 27.485c5.9118-1.2781 10.049-6.6147 9.8069-12.651-0.24175-6.0363-4.7922-11.026-10.787-11.828h-11.765v40.146h6.8627v-15.667h5.8824zm-1.9608-6.8542c-1.2818 0.36363-2.6397 0.36363-3.9216 0v-11.75c1.2804-0.37372 2.6412-0.37372 3.9216 0 2.2157 0.66583 4.902 2.771 4.902 5.875 0 3.104-2.6863 5.1994-4.902 5.875z"/>
<polygon points="200.2 3.006 200.2 43.152 223.73 43.152 223.73 36.298 207.06 36.298 207.06 24.548 222.75 24.548 222.75 17.694 207.06 17.694 207.06 9.8602 223.73 9.8602 223.73 3.006"/>
<polygon points="245.29 0.068542 245.29 43.152 252.16 43.152 252.16 16.714 280.59 46.089 280.59 3.006 273.73 3.006 273.73 29.444"/>
<polygon points="301.17 3.006 301.17 9.8602 309.01 9.8602 309.01 43.152 316.85 43.152 316.85 9.8602 326.66 9.8602 326.66 3.006"/>
<polygon points="346.27 3.006 346.27 43.152 369.8 43.152 369.8 36.298 353.14 36.298 353.14 24.548 368.82 24.548 368.82 17.694 353.14 17.694 353.14 9.8602 369.8 9.8602 369.8 3.006"/>
<path d="m407.06 26.506c5.2549-2.0011 8.4605-7.3293 7.763-12.903-0.69756-5.5735-5.1178-9.9496-10.704-10.597h-11.765v40.146h6.8627v-15.667l10.784 15.667h8.8235l-11.765-16.646zm-3.9216-5.875c-1.2818 0.36363-2.6397 0.36363-3.9216 0v-11.75c1.2804-0.37372 2.6412-0.37372 3.9216 0 2.2157 0.66583 4.902 2.771 4.902 5.875 0 3.104-2.6863 5.1994-4.902 5.875z"/>
<path d="m489.41 21.61c0.41176-0.45042 4.1275-4.6315 2.9412-9.7917-0.6091-2.3428-1.9906-4.4124-3.9216-5.875-2.4902-2.0367-5.0784-2.4675-7.8431-2.9375-2.9207-0.49064-5.9029-0.49064-8.8235 0v40.146h10.784c6.8627-0.088125 12.294-5.0819 12.745-10.771 0.16512-4.396-2.0924-8.5295-5.8824-10.771zm-11.765-12.729h3.9216c2.35 0.7444 3.9467 2.9231 3.9467 5.3854 0 2.4623-1.5967 4.641-3.9467 5.3854h-3.9216v-10.771zm3.9216 28.396h-3.9216v-11.75h3.9216c2.316-0.35437 4.6247 0.68158 5.8975 2.6463 1.2728 1.9648 1.2728 4.4926 0 6.4573-1.2728 1.9648-3.5815 3.0007-5.8975 2.6463z"/>
<path d="m532.55 0.068542c-6.5359 14.361-13.072 28.722-19.608 43.083h7.8431c1.6275-3.2704 2.2843-6.531 3.9216-9.7917h15.686l4.902 9.7917h7.8431l-20.588-43.083zm-4.902 26.438c1.3039-3.5935 3.5882-7.1871 4.902-10.771l4.902 10.771h-9.8039z"/>
<path d="m587.45 26.506c5.2549-2.0011 8.4605-7.3293 7.763-12.903-0.69756-5.5735-5.1178-9.9496-10.704-10.597h-11.765v40.146h6.8627v-15.667l10.784 15.667h8.8235l-11.765-16.646zm-3.9216-5.875c-1.2818 0.36363-2.6397 0.36363-3.9216 0v-11.75c1.2804-0.37372 2.6412-0.37372 3.9216 0 2.2157 0.66583 4.902 2.771 4.902 5.875 0 3.104-2.6863 5.1994-4.902 5.875z"/>
</g>
<g transform="translate(173.53)">
<path d="m93.348 3.5023c-0.13728-0.85351-10.698-0.85351-21.082 1.4716-23.651 5.2878-38.869 20.955-43.634 25.998-6.916 7.4511-12.698 15.88-17.16 25.017-7.8527 16.357-11.717 34.345-11.276 52.486 0.16669 8.0249 0.51969 20.131 5.8833 34.336 12.414 32.914 40.81 48.228 48.047 51.995 16.065 8.2132 33.934 12.261 51.969 11.773 12.781-0.43819 25.388-3.0938 37.261-7.8483 13.649-5.1394 26.025-13.171 36.28-23.545 7.9389-8.1457 14.408-17.605 19.121-27.96h31.377c-4.8514 8.572-10.783 16.485-17.65 23.545-19.434 19.935-41.624 27.999-53.93 31.393 10.803 1.6453 21.832 0.97649 32.358-1.9621 43.703-12.479 59.137-61.217 60.794-66.711h-62.755c-3.7739 11.224-9.7775 21.569-17.65 30.412-27.985 31.178-68.638 29.686-73.541 29.431-16.054-0.91753-31.596-5.988-45.105-14.716-10.826-6.9437-20.025-16.147-26.965-26.979-14.1-22.564-13.228-45.049-12.747-53.957 0.65542-12.017 3.4791-23.816 8.3346-34.827 6.6681-14.614 16.557-27.527 28.926-37.77 5.7558-4.7973 14.993-12.342 28.926-17.168 7.4816-2.5998 14.326-3.7182 14.218-4.4147z"/>
<path d="m125.22 181.56c0 0.85351-14.11 5.4644-29.416 0.98104-11.472-3.365-18.199-10.242-23.533-15.697-14.002-14.304-18.522-30.481-20.591-38.261-2.7982-10.883-3.792-22.151-2.9416-33.355 1.1136-15.886 5.8067-31.314 13.728-45.128 7.2115-12.316 16.893-23.005 28.436-31.393 9.7439-7.1546 20.709-12.474 32.358-15.697 12.257-3.2374 22.003-3.1001 29.416-2.9431 9.9329 0.20602 24.327 0.6573 41.183 7.8483 12.583 5.5237 23.923 13.532 33.339 23.545 7.6209 8.1147 13.909 17.386 18.63 27.469 2.3686 5.0701 4.3358 10.318 5.8833 15.697h-63.735c-2.1366-8.4385-5.7916-16.417-10.786-23.545-4.4517-6.3179-11.767-16.678-25.494-21.583-7.238-2.5178-14.989-3.1922-22.553-1.9621 6.1372-2.9477 12.809-4.6166 19.611-4.9052 4.2458-0.17659 13.669-0.45128 23.533 4.9052 7.609 4.1302 11.767 9.6338 15.689 14.716 4.1012 5.3832 7.4038 11.331 9.8054 17.659h32.358c-4.3946-8.0219-10.019-15.305-16.669-21.583-16.636-15.258-38.233-23.97-60.794-24.526-12.115-0.17899-24.135 2.1594-35.3 6.8673-14.909 6.6318-27.773 17.132-37.261 30.412-13.579 19.052-19.526 42.505-16.669 65.73 1.1216 8.4581 3.4324 16.715 6.8638 24.526 2.5592 5.8863 5.8048 13.077 12.747 20.602 4.2882 4.6364 9.2459 8.6045 14.708 11.773 4.286 2.5795 8.9048 4.56 13.728 5.8863 8.3052 2.2368 13.698 1.4323 13.728 1.9621z"/>
</g>
</g>
</g>
</svg>
